<?xml version="1.0" encoding="UTF-8" standalone="no"?>
<svg width="18px" height="18px" viewBox="0 0 18 18" version="1.1" xmlns="http://www.w3.org/2000/svg" xmlns:xlink="http://www.w3.org/1999/xlink">
    <!-- Generator: Sketch 3.6 (26304) - http://www.bohemiancoding.com/sketch -->
    <title>ic_open_in_new_black_18px</title>
    <desc>Created with Sketch.</desc>
    <defs></defs>
    <g id="Page-1" stroke="none" stroke-width="1" fill="none" fill-rule="evenodd">
        <g id="ic_open_in_new_black_18px" transform="translate(-3.000000, -3.000000)">
            <path d="M0,0 L24,0 L24,24 L0,24 L0,0 Z" id="Shape"></path>
            <path d="M19,19 L5,19 L5,5 L12,5 L12,3 L5,3 C3.89,3 3,3.9 3,5 L3,19 C3,20.1 3.89,21 5,21 L19,21 C20.1,21 21,20.1 21,19 L21,12 L19,12 L19,19 L19,19 Z M14,3 L14,5 L17.59,5 L7.76,14.83 L9.17,16.24 L19,6.41 L19,10 L21,10 L21,3 L14,3 L14,3 Z" id="Shape" fill="#1CADCE"></path>
        </g>
    </g>
</svg>